<mxfile host="www.draw.io" modified="2019-11-08T12:07:18.570Z" agent="Mozilla/5.0 (Macintosh; Intel Mac OS X 10.13; rv:70.0) Gecko/20100101 Firefox/70.0" etag="a6yF011mARdvpWTdInjq" version="12.2.3" type="github" pages="1">
  <diagram id="7cnH-NnOfo04mb4Lqo_o" name="第 1 页">
    <mxGraphModel dx="932" dy="541" grid="1" gridSize="10" guides="1" tooltips="1" connect="1" arrows="1" fold="1" page="1" pageScale="1" pageWidth="827" pageHeight="1169" math="0" shadow="0">
      <root>
        <mxCell id="0"/>
        <mxCell id="1" parent="0"/>
        <mxCell id="x9DU3GrfOK3XYPjq0_lk-3" value="保理池入池泳道图" style="swimlane;html=1;childLayout=stackLayout;resizeParent=1;resizeParentMax=0;startSize=20;horizontal=0;horizontalStack=1;" parent="1" vertex="1">
          <mxGeometry x="70" y="50" width="970" height="860" as="geometry"/>
        </mxCell>
        <mxCell id="x9DU3GrfOK3XYPjq0_lk-4" value="保理池" style="swimlane;html=1;startSize=20;" parent="x9DU3GrfOK3XYPjq0_lk-3" vertex="1">
          <mxGeometry x="20" width="580" height="860" as="geometry"/>
        </mxCell>
        <mxCell id="x9DU3GrfOK3XYPjq0_lk-11" value="" style="edgeStyle=orthogonalEdgeStyle;rounded=0;orthogonalLoop=1;jettySize=auto;html=1;" parent="x9DU3GrfOK3XYPjq0_lk-4" source="x9DU3GrfOK3XYPjq0_lk-9" target="x9DU3GrfOK3XYPjq0_lk-10" edge="1">
          <mxGeometry relative="1" as="geometry"/>
        </mxCell>
        <mxCell id="x9DU3GrfOK3XYPjq0_lk-9" value="定时启动任务&lt;br&gt;传入处理日期" style="strokeWidth=2;html=1;shape=mxgraph.flowchart.start_2;whiteSpace=wrap;" parent="x9DU3GrfOK3XYPjq0_lk-4" vertex="1">
          <mxGeometry x="240" y="40" width="100" height="100" as="geometry"/>
        </mxCell>
        <mxCell id="wWLqrKQLSOyKj97jagOg-2" value="" style="edgeStyle=orthogonalEdgeStyle;rounded=0;orthogonalLoop=1;jettySize=auto;html=1;" edge="1" parent="x9DU3GrfOK3XYPjq0_lk-4" source="x9DU3GrfOK3XYPjq0_lk-10" target="wWLqrKQLSOyKj97jagOg-1">
          <mxGeometry relative="1" as="geometry"/>
        </mxCell>
        <mxCell id="x9DU3GrfOK3XYPjq0_lk-10" value="查询处理日期前所有的有效保理池，按顺序遍历处理" style="rounded=1;whiteSpace=wrap;html=1;absoluteArcSize=1;arcSize=14;strokeWidth=2;fontFamily=Helvetica;fontSize=12;fontColor=#000000;align=center;strokeColor=#000000;fillColor=#ffffff;" parent="x9DU3GrfOK3XYPjq0_lk-4" vertex="1">
          <mxGeometry x="240" y="190" width="100" height="100" as="geometry"/>
        </mxCell>
        <mxCell id="wWLqrKQLSOyKj97jagOg-4" value="关闭" style="edgeStyle=orthogonalEdgeStyle;rounded=0;orthogonalLoop=1;jettySize=auto;html=1;" edge="1" parent="x9DU3GrfOK3XYPjq0_lk-4" source="wWLqrKQLSOyKj97jagOg-1" target="wWLqrKQLSOyKj97jagOg-3">
          <mxGeometry relative="1" as="geometry"/>
        </mxCell>
        <mxCell id="wWLqrKQLSOyKj97jagOg-6" value="开启" style="edgeStyle=orthogonalEdgeStyle;rounded=0;orthogonalLoop=1;jettySize=auto;html=1;" edge="1" parent="x9DU3GrfOK3XYPjq0_lk-4" source="wWLqrKQLSOyKj97jagOg-1" target="wWLqrKQLSOyKj97jagOg-5">
          <mxGeometry relative="1" as="geometry"/>
        </mxCell>
        <mxCell id="wWLqrKQLSOyKj97jagOg-1" value="判断入池状态" style="strokeWidth=2;html=1;shape=mxgraph.flowchart.decision;whiteSpace=wrap;fontFamily=Helvetica;fontSize=12;fontColor=#000000;align=center;strokeColor=#000000;fillColor=#ffffff;" vertex="1" parent="x9DU3GrfOK3XYPjq0_lk-4">
          <mxGeometry x="240" y="350" width="100" height="100" as="geometry"/>
        </mxCell>
        <mxCell id="wWLqrKQLSOyKj97jagOg-5" value="判断入池状态" style="strokeWidth=2;html=1;shape=mxgraph.flowchart.decision;whiteSpace=wrap;fontFamily=Helvetica;fontSize=12;fontColor=#000000;align=center;strokeColor=#000000;fillColor=#ffffff;" vertex="1" parent="x9DU3GrfOK3XYPjq0_lk-4">
          <mxGeometry x="420" y="350" width="100" height="100" as="geometry"/>
        </mxCell>
        <mxCell id="wWLqrKQLSOyKj97jagOg-8" value="处理下一借款人" style="edgeStyle=orthogonalEdgeStyle;rounded=0;orthogonalLoop=1;jettySize=auto;html=1;entryX=0.5;entryY=0;entryDx=0;entryDy=0;entryPerimeter=0;" edge="1" parent="x9DU3GrfOK3XYPjq0_lk-4" source="wWLqrKQLSOyKj97jagOg-3" target="wWLqrKQLSOyKj97jagOg-1">
          <mxGeometry relative="1" as="geometry">
            <mxPoint x="110" y="270" as="targetPoint"/>
            <Array as="points">
              <mxPoint x="110" y="330"/>
              <mxPoint x="290" y="330"/>
            </Array>
          </mxGeometry>
        </mxCell>
        <mxCell id="wWLqrKQLSOyKj97jagOg-3" value="判断是否有在贷金额" style="strokeWidth=2;html=1;shape=mxgraph.flowchart.decision;whiteSpace=wrap;fontFamily=Helvetica;fontSize=12;fontColor=#000000;align=center;strokeColor=#000000;fillColor=#ffffff;" vertex="1" parent="x9DU3GrfOK3XYPjq0_lk-4">
          <mxGeometry x="60" y="350" width="100" height="100" as="geometry"/>
        </mxCell>
        <mxCell id="x9DU3GrfOK3XYPjq0_lk-5" value="票据池" style="swimlane;html=1;startSize=20;" parent="x9DU3GrfOK3XYPjq0_lk-3" vertex="1">
          <mxGeometry x="600" width="370" height="860" as="geometry"/>
        </mxCell>
      </root>
    </mxGraphModel>
  </diagram>
</mxfile>
